<?xml version="1.0" encoding="UTF-8" standalone="no"?><svg xmlns="http://www.w3.org/2000/svg" xmlns:xlink="http://www.w3.org/1999/xlink" contentScriptType="application/ecmascript" contentStyleType="text/css" height="798px" preserveAspectRatio="none" style="width:413px;height:798px;" version="1.1" viewBox="0 0 413 798" width="413px" zoomAndPan="magnify"><defs><filter height="300%" id="faalrvyjszoe3" width="300%" x="-1" y="-1"><feGaussianBlur result="blurOut" stdDeviation="2.0"/><feColorMatrix in="blurOut" result="blurOut2" type="matrix" values="0 0 0 0 0 0 0 0 0 0 0 0 0 0 0 0 0 0 .4 0"/><feOffset dx="4.0" dy="4.0" in="blurOut2" result="blurOut3"/><feBlend in="SourceGraphic" in2="blurOut3" mode="normal"/></filter></defs><g><ellipse cx="142" cy="16" fill="#000000" filter="url(#faalrvyjszoe3)" rx="10" ry="10" style="stroke: none; stroke-width: 1.0;"/><rect fill="#FEFECE" filter="url(#faalrvyjszoe3)" height="33.9688" rx="12.5" ry="12.5" style="stroke: #A80036; stroke-width: 1.5;" width="68" x="108" y="67"/><text fill="#000000" font-family="sans-serif" font-size="12" lengthAdjust="spacingAndGlyphs" textLength="48" x="118" y="88.1387">Initialize</text><polygon fill="#FEFECE" filter="url(#faalrvyjszoe3)" points="142,142,154,154,142,166,130,154,142,142" style="stroke: #A80036; stroke-width: 1.5;"/><rect fill="#FEFECE" filter="url(#faalrvyjszoe3)" height="33.9688" rx="12.5" ry="12.5" style="stroke: #A80036; stroke-width: 1.5;" width="130" x="174" y="220"/><text fill="#000000" font-family="sans-serif" font-size="12" lengthAdjust="spacingAndGlyphs" textLength="110" x="184" y="241.1387">Add service to list</text><rect fill="#FEFECE" filter="url(#faalrvyjszoe3)" height="33.9688" rx="12.5" ry="12.5" style="stroke: #A80036; stroke-width: 1.5;" width="48" x="135" y="295"/><text fill="#000000" font-family="sans-serif" font-size="12" lengthAdjust="spacingAndGlyphs" textLength="28" x="145" y="316.1387">Start</text><polygon fill="#FEFECE" filter="url(#faalrvyjszoe3)" points="159,370,171,382,159,394,147,382,159,370" style="stroke: #A80036; stroke-width: 1.5;"/><rect fill="#FEFECE" filter="url(#faalrvyjszoe3)" height="33.9688" rx="12.5" ry="12.5" style="stroke: #A80036; stroke-width: 1.5;" width="182" x="7" y="448"/><text fill="#000000" font-family="sans-serif" font-size="12" lengthAdjust="spacingAndGlyphs" textLength="162" x="17" y="469.1387">Create SslChannelInitializer</text><rect fill="#FEFECE" filter="url(#faalrvyjszoe3)" height="33.9688" rx="12.5" ry="12.5" style="stroke: #A80036; stroke-width: 1.5;" width="192" x="119" y="523"/><text fill="#000000" font-family="sans-serif" font-size="12" lengthAdjust="spacingAndGlyphs" textLength="172" x="129" y="544.1387">Make ChannelInitializer Actor</text><rect fill="#FEFECE" filter="url(#faalrvyjszoe3)" height="33.9688" rx="12.5" ry="12.5" style="stroke: #A80036; stroke-width: 1.5;" width="164" x="209" y="448"/><text fill="#000000" font-family="sans-serif" font-size="12" lengthAdjust="spacingAndGlyphs" textLength="144" x="219" y="469.1387">Create ChannelInitializer</text><polygon fill="#FEFECE" filter="url(#faalrvyjszoe3)" points="215,603,227,615,215,627,203,615,215,603" style="stroke: #A80036; stroke-width: 1.5;"/><rect fill="#FEFECE" filter="url(#faalrvyjszoe3)" height="33.9688" rx="12.5" ry="12.5" style="stroke: #A80036; stroke-width: 1.5;" width="109" x="220.5" y="686"/><text fill="#000000" font-family="sans-serif" font-size="12" lengthAdjust="spacingAndGlyphs" textLength="89" x="230.5" y="707.1387">Server binding</text><rect fill="#FEFECE" filter="url(#faalrvyjszoe3)" height="33.9688" rx="12.5" ry="12.5" style="stroke: #A80036; stroke-width: 1.5;" width="147" x="247.5" y="598"/><text fill="#000000" font-family="sans-serif" font-size="12" lengthAdjust="spacingAndGlyphs" textLength="127" x="257.5" y="619.1387">Create Hanlder Actor</text><ellipse cx="275" cy="771" fill="none" filter="url(#faalrvyjszoe3)" rx="10" ry="10" style="stroke: #000000; stroke-width: 1.0;"/><ellipse cx="275.5" cy="771.5" fill="#000000" rx="6" ry="6" style="stroke: none; stroke-width: 1.0;"/><!--MD5=[ac13f20130a2a23e05db439db06197df]
link start to Initialize--><path d="M142,26.177 C142,35.269 142,49.527 142,61.485 " fill="none" id="start-to-Initialize" style="stroke: #A80036; stroke-width: 1.0;"/><polygon fill="#A80036" points="142,66.791,146,57.791,142,61.791,138,57.791,142,66.791" style="stroke: #A80036; stroke-width: 1.0;"/><!--MD5=[d97a540d979b4966c59157d1314f90a9]
link Initialize to #138401--><path d="M142,101.115 C142,111.916 142,126.082 142,136.883 " fill="none" id="Initialize-to-#138401" style="stroke: #A80036; stroke-width: 1.0;"/><polygon fill="#A80036" points="142,141.885,146,132.885,142,136.885,138,132.885,142,141.885" style="stroke: #A80036; stroke-width: 1.0;"/><text fill="#000000" font-family="sans-serif" font-size="11" lengthAdjust="spacingAndGlyphs" textLength="74" x="49.9625" y="131.4605">Add services</text><!--MD5=[a1b2f19c818f9205b839d4b6174a44d1]
link #138401 to Add service to list--><path d="M148.068,160.067 C161.265,171.087 193.18,197.738 215.45,216.334 " fill="none" id="#138401-to-Add service to list" style="stroke: #A80036; stroke-width: 1.0;"/><polygon fill="#A80036" points="219.489,219.707,215.1432,210.8688,215.6506,216.5028,210.0165,217.0103,219.489,219.707" style="stroke: #A80036; stroke-width: 1.0;"/><text fill="#000000" font-family="sans-serif" font-size="11" lengthAdjust="spacingAndGlyphs" textLength="23" x="194" y="197.2104">true</text><!--MD5=[9f889ffe79fa41fd359ae4c8e419dd38]
link Add service to list to Start--><path d="M221.245,254.201 C209.231,265.164 193.29,279.71 180.549,291.337 " fill="none" id="Add service to list-to-Start" style="stroke: #A80036; stroke-width: 1.0;"/><polygon fill="#A80036" points="176.705,294.844,186.0498,291.7337,180.3989,291.4743,180.6583,285.8234,176.705,294.844" style="stroke: #A80036; stroke-width: 1.0;"/><!--MD5=[86841ca182432c7939c22b52df5d55c7]
link #138401 to Start--><path d="M139.612,163.847 C135.269,181.288 127.136,221.259 134,254 C136.615,266.473 142.127,279.551 147.311,290.03 " fill="none" id="#138401-to-Start" style="stroke: #A80036; stroke-width: 1.0;"/><polygon fill="#A80036" points="149.658,294.649,149.1454,284.8135,147.3923,290.1918,142.0139,288.4387,149.658,294.649" style="stroke: #A80036; stroke-width: 1.0;"/><text fill="#000000" font-family="sans-serif" font-size="11" lengthAdjust="spacingAndGlyphs" textLength="28" x="135" y="241.2104">false</text><!--MD5=[3f4423467497df41aa710dc6a9855a72]
link Start to #138409--><path d="M159,329.115 C159,339.916 159,354.082 159,364.883 " fill="none" id="Start-to-#138409" style="stroke: #A80036; stroke-width: 1.0;"/><polygon fill="#A80036" points="159,369.885,163,360.885,159,364.885,155,360.885,159,369.885" style="stroke: #A80036; stroke-width: 1.0;"/><text fill="#000000" font-family="sans-serif" font-size="11" lengthAdjust="spacingAndGlyphs" textLength="15" x="140.3438" y="359.4605">ssl</text><!--MD5=[ac07ff5ed09539f6a755f5c55d67fd3e]
link #138409 to Create SslChannelInitializer--><path d="M154.213,389.356 C145.565,400.839 126.989,425.506 113.553,443.348 " fill="none" id="#138409-to-Create SslChannelInitializer" style="stroke: #A80036; stroke-width: 1.0;"/><polygon fill="#A80036" points="110.257,447.724,118.8669,442.9417,113.2652,443.7302,112.4767,438.1285,110.257,447.724" style="stroke: #A80036; stroke-width: 1.0;"/><text fill="#000000" font-family="sans-serif" font-size="11" lengthAdjust="spacingAndGlyphs" textLength="23" x="135" y="425.2104">true</text><!--MD5=[949d2cd533a488bde62fdc2ccd1ffcac]
link Create SslChannelInitializer to Make ChannelInitializer Actor--><path d="M123.676,482.02 C141.536,493.163 165.43,508.072 184.298,519.844 " fill="none" id="Create SslChannelInitializer-to-Make ChannelInitializer Actor" style="stroke: #A80036; stroke-width: 1.0;"/><polygon fill="#A80036" points="188.979,522.765,183.4606,514.6074,184.7369,520.1183,179.2259,521.3947,188.979,522.765" style="stroke: #A80036; stroke-width: 1.0;"/><!--MD5=[906d69e8fb0bd6c4c4f2844e1a6c92ee]
link #138409 to Create ChannelInitializer--><path d="M166.097,387.355 C183.553,398.066 229.409,426.206 260.428,445.24 " fill="none" id="#138409-to-Create ChannelInitializer" style="stroke: #A80036; stroke-width: 1.0;"/><polygon fill="#A80036" points="264.891,447.979,259.3112,439.8632,260.6291,445.3644,255.1279,446.6823,264.891,447.979" style="stroke: #A80036; stroke-width: 1.0;"/><text fill="#000000" font-family="sans-serif" font-size="11" lengthAdjust="spacingAndGlyphs" textLength="28" x="229" y="425.2104">false</text><!--MD5=[0f51890afeaeb66f278c4f554eb407ee]
link Create ChannelInitializer to Make ChannelInitializer Actor--><path d="M274.133,482.201 C262.719,493.164 247.576,507.71 235.471,519.337 " fill="none" id="Create ChannelInitializer-to-Make ChannelInitializer Actor" style="stroke: #A80036; stroke-width: 1.0;"/><polygon fill="#A80036" points="231.82,522.844,241.0819,519.4949,235.4262,519.3806,235.5405,513.7249,231.82,522.844" style="stroke: #A80036; stroke-width: 1.0;"/><!--MD5=[cd08fdb1f90d7159b3e162bc4251cc4d]
link Make ChannelInitializer Actor to #138419--><path d="M215,557.201 C215,569.149 215,585.351 215,597.394 " fill="none" id="Make ChannelInitializer Actor-to-#138419" style="stroke: #A80036; stroke-width: 1.0;"/><polygon fill="#A80036" points="215,602.604,219,593.604,215,597.604,211,593.604,215,602.604" style="stroke: #A80036; stroke-width: 1.0;"/><text fill="#000000" font-family="sans-serif" font-size="11" lengthAdjust="spacingAndGlyphs" textLength="130" x="65.0938" y="595.3039">FreeHandlerQueue full</text><!--MD5=[294c10589d4cdf6b2326c04b116b9516]
link #138419 to Server binding--><path d="M219.708,622.748 C228.44,635.265 247.465,662.533 260.745,681.568 " fill="none" id="#138419-to-Server binding" style="stroke: #A80036; stroke-width: 1.0;"/><polygon fill="#A80036" points="263.653,685.7356,261.7839,676.0657,260.7921,681.6349,255.2229,680.6431,263.653,685.7356" style="stroke: #A80036; stroke-width: 1.0;"/><text fill="#000000" font-family="sans-serif" font-size="11" lengthAdjust="spacingAndGlyphs" textLength="23" x="249" y="663.2104">true</text><!--MD5=[74cb3a449c09e1c4ea63d144b9f4952b]
link #138419 to Create Hanlder Actor--><path d="M227.008,615 C232.056,615 237.105,615 242.153,615 " fill="none" id="#138419-to-Create Hanlder Actor" style="stroke: #A80036; stroke-width: 1.0;"/><polygon fill="#A80036" points="247.201,615,238.201,611,242.201,615,238.201,619,247.201,615" style="stroke: #A80036; stroke-width: 1.0;"/><!--MD5=[0ca01c47596560db1d3d6b2cd19cb060]
link Create Hanlder Actor to Server binding--><path d="M312.348,632.176 C304.895,646.11 294.095,666.301 286.024,681.3901 " fill="none" id="Create Hanlder Actor-to-Server binding" style="stroke: #A80036; stroke-width: 1.0;"/><polygon fill="#A80036" points="283.613,685.8966,291.3857,679.848,285.9718,681.4879,284.3318,676.074,283.613,685.8966" style="stroke: #A80036; stroke-width: 1.0;"/><text fill="#000000" font-family="sans-serif" font-size="11" lengthAdjust="spacingAndGlyphs" textLength="28" x="301" y="663.2104">false</text><!--MD5=[f245e6d68737844d40651031c1520d66]
link Server binding to end--><path d="M275,720.3146 C275,731.2368 275,745.4683 275,755.8993 " fill="none" id="Server binding-to-end" style="stroke: #A80036; stroke-width: 1.0;"/><polygon fill="#A80036" points="275,760.97,279,751.97,275,755.97,271,751.97,275,760.97" style="stroke: #A80036; stroke-width: 1.0;"/><!--MD5=[b9aae0c25d075bf65b1b37793fe451b9]
@startuml
(*) - -> "Initialize"

if "Add services" then
- -> [true] "Add service to list"
- -> "Start"
else
-> [false] "Start"

if "ssl" then
- -> [true] "Create SslChannelInitializer"
- -> "Make ChannelInitializer Actor"
else
- -> [false] "Create ChannelInitializer"
- -> "Make ChannelInitializer Actor"

if "FreeHandlerQueue full" then
-> [true] "Server binding"
else
-> [false] "Create Hanlder Actor"
- -> "Server binding"

- -> (*)
endif
@enduml

PlantUML version 1.2020.16(Sun Aug 23 20:20:43 UTC 2020)
(GPL source distribution)
Java Runtime: Java(TM) SE Runtime Environment
JVM: Java HotSpot(TM) 64-Bit Server VM
Default Encoding: UTF-8
Language: en
Country: US
--></g></svg>
